<svg fill="none" viewBox="0 0 154 32" xmlns="http://www.w3.org/2000/svg">
  <path fill="#de5833" fill-rule="evenodd" d="M15 30c8.284 0 15-6.716 15-15 0-8.284-6.716-15-15-15C6.716 0 0 6.716 0 15c0 8.284 6.716 15 15 15z" clip-rule="evenodd"/>
  <path fill="#ddd" fill-rule="evenodd" d="M17.11 26.191c0-.117.028-.143-.344-.886-.99-1.982-1.985-4.777-1.533-6.58.083-.328-.932-12.127-1.65-12.507-.797-.425-1.779-1.1-2.676-1.25-.456-.073-1.053-.038-1.52.025-.082.011-.086.16-.006.187.306.104.678.284.897.557.042.051-.014.132-.08.135-.207.007-.582.094-1.076.514-.058.049-.01.14.064.125 1.063-.21 2.149-.107 2.789.474.041.038.02.106-.035.12-5.553 1.51-4.454 6.34-2.975 12.269 1.316 5.28 1.812 6.982 1.968 7.5.015.05.05.09.1.11 1.911.761 6.076.795 6.076-.5z" clip-rule="evenodd"/>
  <path fill="#fff" d="M17.871 27.305c-.674.263-1.992.38-2.754.38-1.117 0-2.724-.175-3.31-.439a131.428 131.428 0 0 1-2.62-9.378v-.003c-1.272-5.193-2.31-9.435 3.381-10.767.052-.012.078-.074.043-.115-.653-.775-1.876-1.029-3.423-.495-.063.022-.118-.042-.079-.097.303-.418.896-.74 1.189-.88.06-.03.057-.118-.007-.138a6.532 6.532 0 0 0-.884-.21c-.087-.014-.095-.163-.008-.175 2.193-.295 4.483.363 5.632 1.81a.07.07 0 0 0 .043.028c4.208.903 4.51 7.555 4.024 7.858-.095.06-.401.025-.805-.02-1.638-.183-4.88-.546-2.204 4.44.027.05-.008.115-.064.124-1.508.234.425 4.962 1.846 8.077z"/>
  <path fill="#3ca82b" d="M19.753 21.257c-.32-.148-1.552.735-2.37 1.413-.17-.242-.492-.417-1.219-.29-.636.11-.987.263-1.144.527-1.003-.38-2.692-.967-3.1-.4-.446.62.112 3.553.704 3.934.309.199 1.788-.752 2.56-1.408.125.176.326.276.738.267.624-.015 1.636-.16 1.793-.45a.326.326 0 0 0 .025-.063c.794.297 2.191.611 2.503.564.814-.122-.113-3.92-.49-4.094z"/>
  <path fill="#4cba3c" d="M17.459 22.757c.033.06.06.123.084.188.113.316.297 1.323.158 1.572-.14.249-1.045.369-1.604.379-.559.01-.685-.195-.798-.512-.09-.253-.135-.848-.134-1.19-.023-.505.162-.683 1.016-.82.632-.103.966.016 1.159.22.897-.67 2.394-1.615 2.54-1.442.728.86.82 2.91.662 3.735-.051.27-2.462-.267-2.462-.558 0-1.207-.313-1.538-.621-1.572zm-5.281-.377c.198-.312 1.799.076 2.678.467 0 0-.181.818.106 1.782.085.282-2.021 1.537-2.296 1.321-.318-.25-.903-2.913-.488-3.57z"/>
  <path fill="#fc3" fill-rule="evenodd" d="M12.954 16.033c.13-.564.733-1.625 2.887-1.6 1.09-.004 2.443 0 3.34-.102a12.008 12.008 0 0 0 2.983-.725c.933-.356 1.264-.277 1.38-.064.127.234-.023.638-.349 1.01-.623.71-1.742 1.261-3.718 1.424s-3.286-.366-3.85.497c-.243.372-.055 1.25 1.856 1.526 2.583.373 4.705-.45 4.967.047.262.497-1.248 1.507-3.835 1.528-2.587.021-4.203-.906-4.776-1.367-.728-.584-1.053-1.437-.885-2.174z" clip-rule="evenodd"/>
  <g fill="#14307e" opacity=".8">
    <path d="M16.248 9.874c.145-.237.465-.42.989-.42s.77.21.94.442c.035.047-.018.103-.072.08l-.039-.018a1.926 1.926 0 0 0-.83-.192c-.43-.006-.702.102-.873.195-.058.031-.149-.031-.114-.087zm-5.895.302c.508-.213.908-.185 1.19-.118.06.014.101-.05.054-.089-.22-.177-.71-.396-1.35-.157-.572.213-.84.655-.842.946 0 .068.14.074.177.016.098-.157.262-.386.77-.598z"/>
    <path fill-rule="evenodd" d="M17.681 13.106a.813.813 0 0 1-.814-.811.813.813 0 0 1 1.628 0 .813.813 0 0 1-.814.811zm.574-1.08a.21.21 0 0 0-.422 0 .21.21 0 0 0 .422 0zm-5.968.83a.947.947 0 0 1-.95.947.948.948 0 1 1 0-1.892c.524 0 .95.423.95.945zm-.28-.313a.245.245 0 1 0-.49 0 .245.245 0 0 0 .49 0z" clip-rule="evenodd"/>
  </g>
  <g fill="#fff">
    <path fill-rule="evenodd" d="M15 27.598c6.957 0 12.598-5.64 12.598-12.598 0-6.957-5.64-12.598-12.598-12.598C8.043 2.402 2.402 8.042 2.402 15c0 6.957 5.64 12.598 12.598 12.598zm0 1.172c7.605 0 13.77-6.165 13.77-13.77S22.605 1.23 15 1.23 1.23 7.395 1.23 15 7.395 28.77 15 28.77z" clip-rule="evenodd"/>
    <path d="M82.638 13.181h-2.115l-3.85 3.992V9.189h-1.627v13.616h1.626v-4.484l4.393 4.43.054.054h1.952v-.164l-4.934-4.921zm-10.464 7.292c-.596.601-1.464.93-2.44.93-1.681 0-3.362-1.04-3.362-3.446 0-2.023 1.41-3.445 3.362-3.445.868 0 1.681.328 2.332.93l.054.055 1.03-1.094-.054-.055c-.976-.93-2.115-1.367-3.416-1.367-2.983 0-4.99 2.023-4.99 4.976 0 3.445 2.495 4.976 4.99 4.976h.054c1.301 0 2.549-.492 3.416-1.421l.054-.055-1.084-1.094zm-11.063-2.132c0 1.75-1.193 3.062-2.874 3.117-1.79 0-2.874-1.093-2.874-2.953v-5.304h-1.627v5.304c0 2.735 1.627 4.484 4.176 4.484h.054c1.247 0 2.386-.601 3.145-1.53l.054-.11.055 1.476h1.518v-9.624H61.11zM45.046 9.134H40.11v13.671h4.935c4.718 0 6.778-3.5 6.778-6.945 0-3.226-2.115-6.726-6.778-6.726zm5.097 6.672c0 2.624-1.572 5.25-5.043 5.25h-3.254V10.828h3.2c3.47 0 5.097 2.57 5.097 4.977zm84.439 1.037h4.175v3.172c-1.03.875-2.277 1.367-3.633 1.367-3.688 0-5.369-2.68-5.369-5.304 0-2.68 1.681-5.578 5.315-5.578 1.464 0 2.82.547 3.904 1.531l.054.055.976-1.148-.054-.055c-1.301-1.312-3.037-1.969-4.935-1.969-2.06 0-3.796.657-5.043 1.969-1.301 1.312-2.006 3.172-1.952 5.25 0 3.226 1.844 6.944 7.05 6.944h.108c1.952 0 3.796-.82 5.098-2.296v-5.414h-5.749v1.476zM89.573 9.134h-4.935v13.671h4.935c4.717 0 6.778-3.5 6.778-6.945 0-3.226-2.115-6.726-6.779-6.726zm5.097 6.672c0 2.624-1.573 5.25-5.043 5.25h-3.2V10.828h3.2c3.416 0 5.043 2.57 5.043 4.977zm52.291-2.825c-2.874 0-4.935 2.133-4.935 5.031s2.061 4.976 4.935 4.976 4.989-2.078 4.989-4.976c0-2.953-2.061-5.03-4.989-5.03zm3.362 5.031c0 2.023-1.41 3.445-3.362 3.445-1.898 0-3.308-1.422-3.308-3.445 0-2.078 1.356-3.554 3.362-3.554 1.898.054 3.308 1.53 3.308 3.554zm-44.685.329c0 1.75-1.193 3.062-2.874 3.117-1.79 0-2.874-1.093-2.874-2.953v-5.304h-1.627v5.304c0 2.735 1.627 4.484 4.121 4.484h.054c1.248 0 2.386-.601 3.145-1.53l.055-.11.054 1.476h1.518v-9.624h-1.627v5.14zm11.063 2.132c-.597.601-1.464.93-2.441.93-1.681 0-3.362-1.04-3.362-3.446 0-2.023 1.41-3.445 3.362-3.445.868 0 1.682.328 2.332.93l.055.055 1.03-1.094-.054-.055c-.976-.93-2.115-1.367-3.417-1.367-2.982 0-4.989 2.023-4.989 4.976 0 3.445 2.495 4.976 4.989 4.976h.054c1.302 0 2.549-.492 3.417-1.421l.054-.055-1.084-1.094zm10.463-7.292h-2.115l-3.85 3.992V9.189h-1.627v13.616h1.627v-4.484l4.393 4.43.054.054h1.952v-.164l-4.935-4.921z"/>
  </g>
</svg>
