<svg fill="none" viewBox="0 0 96 96" xmlns="http://www.w3.org/2000/svg">
  <path fill="url(#Search-DuckDuckGo-96_svg__a)" fill-rule="evenodd" d="M74 42.5C74 31.73 65.27 23 54.5 23S35 31.73 35 42.5c0 10.318 8.014 18.765 18.158 19.455A19.9 19.9 0 0 0 51.224 68H50v-.396C38.063 65.48 29 55.048 29 42.5s9.063-22.979 21-25.104V17h4v.005q.25-.005.5-.005C68.583 17 80 28.417 80 42.5c0 2.98-.511 5.841-1.451 8.5h-6.494A19.4 19.4 0 0 0 74 42.5" clip-rule="evenodd"/>
  <path fill="#3969EF" fill-rule="evenodd" d="M52.5 62C41.73 62 33 53.27 33 42.5S41.73 23 52.5 23 72 31.73 72 42.5c0 3.056-.703 5.948-1.956 8.522-7.398.349-13.744 4.716-16.904 10.968q-.32.01-.64.01" clip-rule="evenodd" opacity=".3"/>
  <path fill="#fff" fill-rule="evenodd" d="M37.484 46.358C39.469 37.566 47.328 31 56.72 31c2.716 0 5.304.55 7.659 1.542A15.47 15.47 0 0 0 52.5 27C43.94 27 37 33.94 37 42.5c0 1.332.168 2.625.484 3.858" clip-rule="evenodd" opacity=".9"/>
  <path fill="url(#Search-DuckDuckGo-96_svg__b)" fill-rule="evenodd" d="M50.5 23C61.27 23 70 31.73 70 42.5c0 3.14-.742 6.105-2.06 8.733A20 20 0 0 1 71 51h3.549A25.5 25.5 0 0 0 76 42.5C76 28.417 64.583 17 50.5 17S25 28.417 25 42.5c0 6.11 2.15 11.719 5.733 16.11L20.172 69.172a4 4 0 1 0 5.656 5.656l10.878-10.877a25.4 25.4 0 0 0 14.519 4.039 19.9 19.9 0 0 1 2.007-6.18q-1.34.19-2.732.19a19.42 19.42 0 0 1-12.24-4.32 4 4 0 0 0-1.35-1.196A19.44 19.44 0 0 1 31 42.5C31 31.73 39.73 23 50.5 23" clip-rule="evenodd"/>
  <path fill="#888" d="M25.586 61.414a2 2 0 0 1 2.828 0l5.172 5.172a2 2 0 0 1 0 2.828L25.75 77.25a5.657 5.657 0 0 1-8-8z"/>
  <path fill="#CCC" d="M92.502 59c.297 0 .594.12.822.354.454.468.454 1.23 0 1.698l-2.333 2.4a1.145 1.145 0 0 1-1.65 0 1.227 1.227 0 0 1 0-1.698l2.333-2.4c.227-.234.524-.354.822-.354zm-1.167 10.798h3.499c.641 0 1.166.54 1.166 1.2s-.525 1.2-1.166 1.2h-3.499c-.641 0-1.166-.54-1.166-1.2s.525-1.2 1.166-1.2m-1.982 8.754c.227-.234.525-.354.822-.354h.006c.297 0 .595.12.822.354l2.332 2.4c.455.467.455 1.23 0 1.697a1.145 1.145 0 0 1-1.65 0l-2.332-2.4a1.227 1.227 0 0 1 0-1.697"/>
  <rect width="32" height="32" x="55" y="55" fill="#DE5833" rx="16"/>
  <path fill="#fff" fill-rule="evenodd" d="M71 57.044c-7.708 0-13.956 6.248-13.956 13.956S63.292 84.956 71 84.956 84.956 78.707 84.956 71c0-7.708-6.249-13.956-13.956-13.956M58.956 71c0-6.652 5.392-12.044 12.044-12.044 6.651 0 12.044 5.392 12.044 12.044 0 5.892-4.232 10.796-9.822 11.84-1.452-3.336-2.966-7.33-1.485-7.772-1.763-3.18-1.406-5.268 2.254-4.624h.005c.41.047.721.082.818.02.496-.315.189-7.242-4.114-8.182-3.96-4.9-7.73.688-5.817.306 1.529-.382 2.665-.03 2.612-.014-6.755.852-3.614 11.495-1.88 17.369a83 83 0 0 1 .606 2.116c-4.275-1.85-7.265-6.105-7.265-11.059" clip-rule="evenodd"/>
  <path fill="#4CBA3C" d="M76.29 81.09c-.043.274-.137.457-.306.482-.319.05-1.747-.278-2.56-.587-.092.425-2.268.827-2.613.257-.79.682-2.302 1.673-2.619 1.465-.605-.396-1.175-3.45-.72-4.096.693-.63 2.15.055 3.171.417.347-.586 2.024-.808 2.372-.327.917-.697 2.448-1.68 2.597-1.501.745.897.839 3.03.678 3.89"/>
  <path fill="#FC3" fill-rule="evenodd" d="M68.53 71.87c.311-2.216 4.496-1.523 6.368-1.772a12 12 0 0 0 3.05-.755c1.547-.636 1.811-.005 1.054.985-2.136 2.533-6.889.69-7.74 2-.248.388-.056 1.301 1.899 1.589 2.64.388 4.81-.468 5.079.05-.603 2.764-10.63 1.823-9.712-2.097z" clip-rule="evenodd"/>
  <path fill="#14307E" d="M73.871 65.48c-.277-.6-1.7-.596-1.972-.024-.025.118.075.087.263.028.331-.104.938-.295 1.636.078.055.024.109-.033.073-.083m-6.954.144c-.264-.019-.693-.05-1.048.147-.52.222-.687.46-.788.624-.037.06-.181.054-.181-.017.035-.954 1.653-1.414 2.241-.821.072.089-.033.081-.224.067m6.447 3.199c-1.088-.005-1.088-1.684 0-1.69 1.09.006 1.09 1.685 0 1.69m-5.517-.26c-.021 1.294-1.92 1.294-1.94 0 .005-1.289 1.934-1.288 1.94 0"/>
  <defs>
    <radialGradient id="Search-DuckDuckGo-96_svg__a" cx="0" cy="0" r="1" gradientTransform="matrix(20.57899 38.8983 -38.33135 20.27905 49.132 26.94)" gradientUnits="userSpaceOnUse">
      <stop stop-color="#DDD"/>
      <stop offset="1" stop-color="#888"/>
    </radialGradient>
    <radialGradient id="Search-DuckDuckGo-96_svg__b" cx="0" cy="0" r="1" gradientTransform="matrix(23 44.99998 -43.47458 22.22036 41.5 28.5)" gradientUnits="userSpaceOnUse">
      <stop stop-color="#E5E5E5"/>
      <stop offset="1" stop-color="#CCC"/>
    </radialGradient>
  </defs>
</svg>