<svg fill="none" viewBox="0 0 96 96" xmlns="http://www.w3.org/2000/svg">
  <path fill="#C18010" d="M70 51c-11.046 0-20 8.954-20 20l-4.5-1-2.5 4c-11.175-2.697-19.693-12.49-21.6-24.092.692.06 1.393.092 2.1.092C36.479 50 47 39.48 47 26.5c0-3.774-.89-7.34-2.47-10.5H50c16.016 0 29 12.984 29 29a29.3 29.3 0 0 1-.133 2.793C78.687 49.676 77.024 51 75.132 51z"/>
  <path fill="#F9BE1A" d="M70 51c-11.046 0-20 8.954-20 20 0 1.386-.97 2.599-2.345 2.772-1.197.15-2.417.228-3.655.228-15.856 0-29.07-13.276-29-29.131a24.15 24.15 0 0 0 5 0C31.803 43.62 41 33.634 41 21.5a23.57 23.57 0 0 0-.595-5.28A29.284 29.284 0 0 1 44 16c16.016 0 29 12.984 29 29a29.14 29.14 0 0 1-.621 6z"/>
  <path fill="#C18010" d="M49.733 25.34c.75-1.42 2.784-1.42 3.535 0l1.442 2.724c.705 1.332-.26 2.936-1.768 2.936h-2.884c-1.507 0-2.472-1.604-1.767-2.936zm10 15c.75-1.42 2.784-1.42 3.535 0l1.442 2.724c.705 1.333-.26 2.936-1.768 2.936h-2.884c-1.507 0-2.472-1.603-1.767-2.935l1.442-2.725Zm-19-1c.75-1.42 2.784-1.42 3.535 0l1.442 2.724c.705 1.333-.26 2.936-1.768 2.936h-2.884c-1.507 0-2.472-1.603-1.767-2.935zm2 17c.75-1.42 2.784-1.42 3.535 0l1.442 2.724c.705 1.333-.26 2.936-1.768 2.936h-2.884c-1.507 0-2.472-1.603-1.767-2.935zm-15-4c.75-1.42 2.784-1.42 3.535 0l1.442 2.724c.705 1.333-.26 2.936-1.768 2.936h-2.884c-1.507 0-2.472-1.603-1.767-2.935l1.442-2.725Z"/>
  <circle cx="70" cy="71" r="16" fill="#EE1025"/>
  <rect width="20" height="6" x="60" y="68" fill="#fff" rx="2"/>
  <path fill="#CCC" d="M91.766 59.052a1.203 1.203 0 0 1 .847 2.053l-2.402 2.401a1.203 1.203 0 0 1-1.7 0 1.203 1.203 0 0 1 0-1.699l2.402-2.401c.234-.234.54-.354.847-.354h.006Zm-1.201 10.806h3.602c.66 0 1.2.54 1.2 1.2 0 .661-.54 1.201-1.2 1.201h-3.602c-.66 0-1.2-.54-1.2-1.2 0-.66.54-1.201 1.2-1.201m-2.041 8.76c.234-.234.54-.354.847-.354h.005c.307 0 .613.12.847.354l2.401 2.401a1.203 1.203 0 0 1-1.699 1.699l-2.401-2.401a1.203 1.203 0 0 1 0-1.7Z"/>
</svg>
