<svg fill="none" viewBox="0 0 96 96" xmlns="http://www.w3.org/2000/svg">
  <path fill="#21C000" d="M71 87c8.837 0 16-7.163 16-16s-7.163-16-16-16-16 7.163-16 16 7.163 16 16 16"/>
  <path fill="#fff" fill-rule="evenodd" d="M76.5 70v-3.951a5.57 5.57 0 0 0-1.605-3.917A5.48 5.48 0 0 0 71 60.5c-1.465 0-2.865.59-3.895 1.632a5.57 5.57 0 0 0-1.605 3.917V70H65a2 2 0 0 0-2 2v6a2 2 0 0 0 2 2h12a2 2 0 0 0 2-2v-6a2 2 0 0 0-2-2zm-3.739-5.76A2.48 2.48 0 0 0 71 63.5c-.657 0-1.291.264-1.761.74a2.57 2.57 0 0 0-.739 1.809V70h5v-3.951c0-.682-.268-1.332-.739-1.809" clip-rule="evenodd"/>
  <path fill="#CCC" d="M92.501 59c.298 0 .595.12.823.354.454.468.454 1.23 0 1.698l-2.333 2.4a1.145 1.145 0 0 1-1.65 0 1.227 1.227 0 0 1 0-1.698l2.333-2.4c.227-.234.524-.354.822-.354zm-1.166 10.798h3.499c.641 0 1.166.54 1.166 1.2s-.525 1.2-1.166 1.2h-3.499c-.641 0-1.166-.54-1.166-1.2s.525-1.2 1.166-1.2m-1.982 8.754c.227-.234.525-.354.822-.354h.006c.297 0 .595.12.822.354l2.332 2.4c.455.467.455 1.23 0 1.697a1.145 1.145 0 0 1-1.65 0l-2.332-2.4a1.227 1.227 0 0 1 0-1.697"/>
  <path fill="url(#DuckAI-Private-96-1_svg__a)" d="M71 51c-11.046 0-20 8.954-20 20v.817c0 .888-.585 1.67-1.44 1.914-7.415 2.113-15.813 4.08-21.926 5.433a3.1 3.1 0 0 1-.932.066H22V75h2.376q.17-.337.443-.65l7.28-8.32C25.34 60.904 21 52.941 21 44c0-13.478 9.863-24.732 23-27.4V16h7v.016C66.553 16.526 79 28.86 79 44q0 1.247-.11 2.466C78.643 49.173 76.194 51 73.475 51z"/>
  <path fill="url(#DuckAI-Private-96-1_svg__b)" d="M71 51c-11.046 0-20 8.954-20 20v.763c-8.5 2.82-20.38 5.633-28.365 7.4-2.799.62-4.704-2.656-2.816-4.813l5.161-5.898c1.145-1.31.929-3.306-.331-4.505C19.309 58.87 16 51.807 16 44c0-15.464 12.984-28 29-28s29 12.536 29 28c0 2.417-.317 4.763-.914 7z"/>
  <path fill="#fff" d="M43.727 28.712c.332-1.325 2.215-1.325 2.546 0l1.236 4.944a10.93 10.93 0 0 0 7.955 7.955l4.945 1.236c1.325.332 1.325 2.215 0 2.546l-4.945 1.236a10.93 10.93 0 0 0-7.955 7.955l-1.236 4.945c-.331 1.325-2.214 1.325-2.546 0l-1.236-4.945a10.93 10.93 0 0 0-7.955-7.955l-4.945-1.236c-1.325-.331-1.325-2.214 0-2.546l4.945-1.236a10.93 10.93 0 0 0 7.955-7.955z"/>
  <defs>
    <linearGradient id="DuckAI-Private-96-1_svg__a" x1="50" x2="50" y1="16" y2="79.24" gradientUnits="userSpaceOnUse">
      <stop stop-color="#876ECB"/>
      <stop offset="1" stop-color="#2B55CA"/>
    </linearGradient>
    <linearGradient id="DuckAI-Private-96-1_svg__b" x1="45" x2="45" y1="16" y2="79.24" gradientUnits="userSpaceOnUse">
      <stop stop-color="#C7B9EE"/>
      <stop offset=".638" stop-color="#A0A8F2"/>
      <stop offset="1" stop-color="#7295F6"/>
    </linearGradient>
  </defs>
</svg>