<svg fill="none" viewBox="0 0 96 96" xmlns="http://www.w3.org/2000/svg">
  <path fill="url(#Fire-On-96x96_svg__a)" d="M51 75.86c-.783.078-1.777.14-2.97.14-.588 0-1.148-.031-1.671-.083a17.804 17.804 0 0 1-2.036-.32c-1.25-.272-2.013-.582-2.013-.582a24.69 24.69 0 0 1-9.579-6.145 24.683 24.683 0 0 1-5.802-9.794 21.753 21.753 0 0 1 4.626-21.19 11.442 11.442 0 0 0 .844 5.068 14.282 14.282 0 0 0 3.23 4.407s-.763-2.022-.252-5.638l.027-.184c.086-.573.205-1.185.363-1.833.49-2.007 1.358-4.368 2.835-7.036A28.09 28.09 0 0 1 56.956 20a14.032 14.032 0 0 0-1.835 10.173c.558 1.863 1.296 3.291 2.151 4.946.831 1.608 1.773 3.43 2.767 6.072.053.118.105.237.155.356l.016.039.059.14a19.472 19.472 0 0 1 1.459 7.655c.34-2 1.022-3.926 2.019-5.693a14.097 14.097 0 0 1 7.341-6.06 21.457 21.457 0 0 0-1.688 10.43c.171.99.292 1.984.361 2.98.41-.025.823-.038 1.239-.038 1.58 0 2.843-1.336 2.609-2.899a33.127 33.127 0 0 0-.09-.566 17.31 17.31 0 0 1 1.375-8.256 4.148 4.148 0 0 0-5.21-5.554 18.242 18.242 0 0 0-6.531 4.079c-.797-1.883-1.546-3.332-2.185-4.568l-.01-.021c-.829-1.604-1.38-2.69-1.806-4.044a9.887 9.887 0 0 1 1.328-6.983 4.148 4.148 0 0 0-4.331-6.257 32.222 32.222 0 0 0-21.065 14.542 4.086 4.086 0 0 0-.11.187 36.906 36.906 0 0 0-1.691 3.454 4.148 4.148 0 0 0-4.8.983 25.893 25.893 0 0 0-5.51 25.224A28.83 28.83 0 0 0 40.98 78.948c.115.043.268.097.456.16.374.123.89.279 1.522.432a21.75 21.75 0 0 0 5.292.607c1.558-.009 2.75-1.317 2.75-2.874z"/>
  <path fill="url(#Fire-On-96x96_svg__b)" d="M69.762 51.038c-.07-.996-.19-1.99-.362-2.98a21.457 21.457 0 0 1 1.689-10.43 14.097 14.097 0 0 0-7.342 6.06 17.563 17.563 0 0 0-2.019 5.693 19.49 19.49 0 0 0-1.688-8.19c-.995-2.643-1.937-4.464-2.767-6.072-.856-1.655-1.594-3.083-2.152-4.946A14.035 14.035 0 0 1 56.956 20a28.073 28.073 0 0 0-18.353 12.67c-5.066 9.145-2.974 14.69-2.974 14.69a14.284 14.284 0 0 1-3.23-4.406 11.427 11.427 0 0 1-.844-5.069 21.746 21.746 0 0 0-4.625 21.191 24.683 24.683 0 0 0 15.38 15.94 10.428 10.428 0 0 1-5.543-8.668c-.16-5.018 2.453-8.193 5.033-11.33.97-1.18 1.937-2.353 2.75-3.617a14.437 14.437 0 0 0 3.23-10.798 14.691 14.691 0 0 1 5.69 8.998 16.54 16.54 0 0 1 .586 6.207 28.143 28.143 0 0 1-2.606 9.512s.155-.034.413-.15c2.38-7.823 9.427-13.615 17.899-14.132Z"/>
  <path fill="url(#Fire-On-96x96_svg__c)" d="M51.862 65.17A20 20 0 0 0 51 71v4.86c-.783.078-1.778.14-2.97.14-3.295 0-5.72-.985-5.72-.985a10.426 10.426 0 0 1-5.543-8.667c-.16-5.018 2.452-8.193 5.033-11.33.97-1.18 1.936-2.353 2.749-3.617a14.436 14.436 0 0 0 3.23-10.798 14.691 14.691 0 0 1 5.69 8.998 16.56 16.56 0 0 1 .587 6.207 28.144 28.144 0 0 1-2.606 9.512s.155-.034.412-.15Z"/>
  <path fill="#21C000" d="M71 87c8.837 0 16-7.163 16-16s-7.163-16-16-16-16 7.163-16 16 7.163 16 16 16"/>
  <path fill="#fff" d="M79.885 68.31c.52-.52.52-1.365 0-1.885l-1.859-1.86a1.333 1.333 0 0 0-1.885 0l-6.538 6.54c-.52.52-1.365.52-1.885 0l-1.86-1.86a1.333 1.333 0 0 0-1.884 0l-1.86 1.86c-.52.52-.52 1.364 0 1.885l5.604 5.602c.52.52 1.364.52 1.885 0z"/>
  <path fill="#CCC" d="M92.501 59c.298 0 .595.12.823.354.454.468.454 1.23 0 1.698l-2.333 2.4a1.145 1.145 0 0 1-1.65 0 1.227 1.227 0 0 1 0-1.698l2.333-2.4c.227-.234.524-.354.822-.354h.005Zm-1.166 10.798h3.499c.641 0 1.166.54 1.166 1.2 0 .66-.525 1.2-1.166 1.2h-3.499c-.641 0-1.166-.54-1.166-1.2 0-.66.525-1.2 1.166-1.2m-1.982 8.754c.227-.234.525-.354.822-.354h.006c.297 0 .595.12.822.354l2.332 2.4c.455.467.455 1.23 0 1.697a1.145 1.145 0 0 1-1.65 0l-2.332-2.4a1.227 1.227 0 0 1 0-1.697"/>
  <defs>
    <linearGradient id="Fire-On-96x96_svg__a" x1="48.5" x2="48.5" y1="20" y2="76" gradientUnits="userSpaceOnUse">
      <stop stop-color="#D7320F"/>
      <stop offset="1" stop-color="#EF4926"/>
    </linearGradient>
    <linearGradient id="Fire-On-96x96_svg__b" x1="40.989" x2="59.214" y1="18.814" y2="76.276" gradientUnits="userSpaceOnUse">
      <stop stop-color="#FFAA2C" stop-opacity=".8"/>
      <stop offset="1" stop-color="#FFAF38"/>
    </linearGradient>
    <linearGradient id="Fire-On-96x96_svg__c" x1="44.546" x2="58.231" y1="39.847" y2="74.804" gradientUnits="userSpaceOnUse">
      <stop stop-color="#FFE565" stop-opacity=".9"/>
      <stop offset="1" stop-color="#FFE565"/>
    </linearGradient>
  </defs>
</svg>
