<svg xmlns="http://www.w3.org/2000/svg" fill="none" viewBox="0 0 96 96"><path fill="#21C000" d="M71 87a16 16 0 1 0 0-32 16 16 0 0 0 0 32"/><path fill="#fff" fill-rule="evenodd" d="M76.5 70v-4a5.6 5.6 0 0 0-1.6-3.9 5.5 5.5 0 0 0-3.9-1.6c-1.5 0-2.9.6-3.9 1.6a5.6 5.6 0 0 0-1.6 4V70H65a2 2 0 0 0-2 2v6a2 2 0 0 0 2 2h12a2 2 0 0 0 2-2v-6a2 2 0 0 0-2-2zm-3.7-5.8a2.5 2.5 0 0 0-1.8-.7c-.7 0-1.3.3-1.8.7a2.6 2.6 0 0 0-.7 1.8v4h5v-4c0-.6-.3-1.3-.7-1.8" clip-rule="evenodd"/><path fill="#CCC" d="M92.5 59c.3 0 .6.1.8.4.5.4.5 1.2 0 1.7L91 63.5a1.1 1.1 0 0 1-1.7 0 1.2 1.2 0 0 1 0-1.7l2.4-2.4c.2-.3.5-.4.8-.4zm-1.2 10.8h3.5c.7 0 1.2.5 1.2 1.2s-.5 1.2-1.2 1.2h-3.5c-.6 0-1.1-.5-1.1-1.2s.5-1.2 1.1-1.2m-2 8.8c.3-.3.6-.4.9-.4.3 0 .6.1.8.4l2.3 2.4c.5.4.5 1.2 0 1.6a1.1 1.1 0 0 1-1.6 0l-2.3-2.4a1.2 1.2 0 0 1 0-1.6"/><path fill="#557FF3" d="M71 51c-11 0-20 9-20 20v4.3c0 2.6-2 4.8-4.6 4.7A32 32 0 1 1 80 46.5c.2 2.5-2 4.5-4.6 4.5z"/><path fill="url(#a)" d="m46 66.3 3 3.1a5.4 5.4 0 0 1 1.7 4.4v1.5c0 2.6-2 4.8-4.6 4.6C29.7 79 16 65 16 48a32 32 0 0 1 36.6-31.7L53 22c0 2.6-1.3 5.6-3.2 7.4l-2 2a10 10 0 0 0-2.8 7V42c0 4.3-3.5 7.8-7.8 7.8H23.6a3.9 3.9 0 0 0-3.9 3.9v.4c0 1 .4 2 1.2 2.7l3.8 3.8a10 10 0 0 0 6.9 2.8H39c2.7 0 5 1 7 2.8"/><path fill="url(#b)" d="M77 34.4a32.1 32.1 0 0 0-18.4-16.6v8.8c0 4.3 3.5 7.8 7.8 7.8z"/><path fill="#8FABF9" fill-rule="evenodd" d="M49.5 71.5q.7 1.5 1.5 2.6v1.2a5 5 0 0 1-.3 1.8c-1-1.2-2-2.8-3-4.6l-.4-.8a65 65 0 0 1-9 1l1.4 1.1c3 2.7 6.3 4.5 9.6 5.2a4.1 4.1 0 0 1-2.9 1 31 31 0 0 1-.9-.1c-2.5-1-4.9-2.6-7.1-4.6a34 34 0 0 1-2.8-2.7 43 43 0 0 1-5.7-.4 31 31 0 0 1-3.4-.7 33 33 0 0 1-3.2-3.4c1.8 1 4.2 1.7 7 2.1q1.7.3 3.6.4c-2.3-3-4.3-6.3-5.9-10.1h-1a29 29 0 0 1-7.8-.7 11 11 0 0 1-1-.3q-.6-1.4-1-3c.2.5 1 1 2.5 1.4 1.7.5 4.2.7 7.2.6h.3a51 51 0 0 1-1.4-4.5 50 50 0 0 1-1.4-7l-1 .1c-3 .5-5.4.7-7.2.6H16v-2h.2c1.7 0 4-.1 7-.5l1-.2c-.3-4.2 0-8.2.7-11.9a253 253 0 0 1-5.9 1.3l1.2-2.3 5.2-1.1.6-1.8c1-2.9 2.3-5.5 4-7.6a32 32 0 0 1 3.5-2.1 32.3 32.3 0 0 1 10.3-3.2 32.3 32.3 0 0 1 6.6-.2c2.6 1 5 2.6 7.2 4.6L59 22a268 268 0 0 0 5-1.6l2.1 1.4-.8.3-4.7 1.5c2.5 2.8 4.7 6.1 6.5 10l1-.5c2.7-1 4.9-2 6.3-3l1 1.8c-1.5.9-3.8 2-6.6 3.1l-.9.3a50 50 0 0 1 2.3 6.7c.4 1.6.8 3.2 1 4.7l.3-.2c2.7-1.4 4.7-2.8 6-4 1-1.1 1.4-2 1.4-2.4l.7 3-.7.7a29 29 0 0 1-6.4 4.5l-1 .5.3 2.2h-2a45 45 0 0 0-.2-1.2c-3.1 1.5-6.8 3-11 4.4l.3.9q-1 .7-1.8 1.5a118 118 0 0 0-.3-1.8l-6.5 1.9a136 136 0 0 1-6.5 1.6c1.5 4.2 3 8 4.6 11.2l2.7-.6a20 20 0 0 0-.1 2l-1.7.4.1.2zm-9.8-54.4c-.5.1-1.1.8-1.6 2.6-.5 1.7-.7 4.2-.6 7.2V28a541 541 0 0 0 9.6-2.5 55 55 0 0 0-.6-1 27 27 0 0 0-4-6c-1.4-1.3-2.3-1.5-2.8-1.4m28.6 25.5A48 48 0 0 0 66 36c-3.2 1.2-7 2.4-11 3.7a137 137 0 0 1 3.3 12.4c4.2-1.4 8-3 11-4.5a49 49 0 0 0-1-5.1m-13.5 3.6L53 40.3A270 270 0 0 1 39.8 44l1.4 6a133 133 0 0 0 2 6.5 133 133 0 0 0 6.6-1.6 133 133 0 0 0 6.6-2 133 133 0 0 0-1.6-6.6m-8.9-6a268 268 0 0 1-6.5 1.7c-.9-4.3-1.5-8.3-1.7-11.9A543 543 0 0 0 48 27.3c1.5 3.2 3 7 4.4 11.1a268 268 0 0 1-6.5 1.9m-19.7 4.4a191 191 0 0 0 11.2-2.3 101 101 0 0 1-1.7-11.9 437 437 0 0 1-8.6 2.1c-.9 3.7-1.2 7.8-.9 12m.2 2c3.4-.5 7.3-1.3 11.5-2.2a136 136 0 0 0 1.4 6l1.9 6.4c-4.3.8-8.4 1.4-11.9 1.6a49 49 0 0 1-1.6-5 48 48 0 0 1-1.3-6.7m1.3-16.3a448 448 0 0 0 7.9-1.9 58 58 0 0 1-.1-1.6c0-3 .1-5.7.7-7.7q0-.4.2-.7a20 20 0 0 0-8.5 11.3l-.2.6m20.6-6.9L49 25a448 448 0 0 0 7.8-2.3l-.5-.4a20 20 0 0 0-13-5.6l.5.5a29 29 0 0 1 4.5 6.4m17 10.7a39.7 39.7 0 0 0-6.9-10C55.8 25 53 26 50 26.7c1.6 3.2 3 7 4.5 11.2 4-1.3 7.7-2.5 10.8-3.7M36.5 70.7c3 0 6.4-.3 9.8-.9-1.5-3.2-3-7-4.5-11.1-4.2.8-8.2 1.4-11.7 1.6 1.8 4 4 7.5 6.4 10.4" clip-rule="evenodd"/><path fill="#7295F6" fill-opacity=".6" d="M52 64.7a20 20 0 0 0-1 6.3v4.3c0 2.6-2 4.8-4.6 4.7a32.2 32.2 0 0 1-19.6-8H29a39.8 39.8 0 0 0 23-7.3m11.3-12.2A39.8 39.8 0 0 0 69 32c0-3-.4-6.1-1-9a32.3 32.3 0 0 1 12 23.4c0 2.6-2.1 4.6-4.7 4.6H71a20 20 0 0 0-7.7 1.5" style="mix-blend-mode:multiply"/><defs><radialGradient id="a" cx="0" cy="0" r="1" gradientTransform="matrix(23 25 -24 21 41 40.5)" gradientUnits="userSpaceOnUse"><stop stop-color="#4A74E8"/><stop offset="1" stop-color="#2A54C8"/></radialGradient><radialGradient id="b" cx="0" cy="0" r="1" gradientTransform="matrix(23 25 -24 21 41 40.5)" gradientUnits="userSpaceOnUse"><stop stop-color="#4A74E8"/><stop offset="1" stop-color="#2A54C8"/></radialGradient></defs></svg>