<svg width="96" height="96" viewBox="0 0 96 96" fill="none" xmlns="http://www.w3.org/2000/svg">
  <path d="M19.2084 64.0958L16.8359 37.4048C16.3419 31.8476 19.6167 26.6437 24.8406 24.6848C39.7725 19.0853 56.2274 19.0853 71.1592 24.6848C76.3831 26.6437 79.6579 31.8476 79.1639 37.4048L76.7914 64.0958C76.3709 68.8269 71.9034 72.1222 67.259 71.127C54.5637 68.4065 41.4361 68.4065 28.7408 71.127C24.0964 72.1222 19.629 68.8269 19.2084 64.0958Z" fill="#DE5833"/>
  <path d="M58.75 42.9689C61.0833 44.3161 61.0833 47.6839 58.75 49.0311L43.75 57.6914C41.4167 59.0385 38.5 57.3546 38.5 54.6603L38.5 37.3398C38.5 34.6454 41.4167 32.9615 43.75 34.3087L58.75 42.9689Z" fill="#9A3216"/>
  <path d="M50 78C53.866 78 57 74.866 57 71C57 68.3395 55.5158 66.0257 53.3302 64.8414C52.5893 64.4399 51.8476 64.015 51.2696 63.4017L32.2981 43.2736C31.0955 41.9976 29.0549 43.4687 29.8855 45.013L42.484 68.4366C42.9029 69.2153 43 70.1158 43 71Lnan nanL43 71C43 74.866 46.134 78 50 78Z" fill="white"/>
  <path d="M48 80C51.866 80 55 76.866 55 73C55 70.4309 53.616 68.1851 51.5529 66.9674C50.6885 66.4572 49.8211 65.9129 49.2049 65.1206L32.151 43.1942C31.0711 41.8057 28.8954 43.0892 29.5883 44.706L40.5931 70.384C40.9441 71.2029 41 72.1091 41 73Lnan nanL41 73C41 76.866 44.134 80 48 80Z" fill="#444444"/>
</svg>
