<svg fill="none" viewBox="0 0 128 96" xmlns="http://www.w3.org/2000/svg"><path fill="#888" d="m106.6 34-1.6-.4a.9.9 0 0 1-.6-.6l-.4-1.6a.8.8 0 0 0-.8-.6c-.4 0-.7.3-.8.6L102 33a.9.9 0 0 1-.6.6l-1.6.4a.8.8 0 0 0-.6.8c0 .4.3.7.6.8l1.6.4a.9.9 0 0 1 .6.6l.4 1.6a.8.8 0 0 0 .8.6c.4 0 .7-.3.8-.6l.4-1.6a.9.9 0 0 1 .6-.6l1.6-.4a.8.8 0 0 0 .6-.8c0-.4-.3-.7-.6-.8Zm5.4 20c-1.1 0-2 .9-2 2s.9 2 2 2 2-.9 2-2-.9-2-2-2Zm-86 8.8-2.3-.6c-.4 0-.8-.5-.9-1l-.6-2.3c-.2-.6-.7-.9-1.2-.9-.6 0-1.1.4-1.2 1l-.6 2.3c0 .4-.5.8-1 .9l-2.3.6c-.6.2-.9.7-.9 1.2 0 .6.4 1.1 1 1.2l2.3.6c.4 0 .8.5.9 1l.6 2.3c.2.6.7.9 1.2.9.6 0 1.1-.4 1.2-1l.6-2.3c0-.4.5-.8 1-.9l2.3-.6c.6-.2.9-.7.9-1.2 0-.6-.4-1.1-1-1.2ZM7.5 42.2l-1.6-.4a.9.9 0 0 1-.6-.6l-.4-1.6A.8.8 0 0 0 4 39c-.4 0-.7.3-.8.6l-.4 1.6a.9.9 0 0 1-.6.6l-1.6.4a.8.8 0 0 0-.6.8c0 .4.3.7.6.8l1.6.4a.9.9 0 0 1 .6.6l.4 1.6c.1.4.5.6.8.6.4 0 .7-.3.8-.6l.4-1.6a.9.9 0 0 1 .6-.6l1.6-.4A.8.8 0 0 0 8 43c0-.4-.3-.7-.6-.8ZM126.5 45c-.8 0-1.5.7-1.5 1.5s.7 1.5 1.5 1.5 1.5-.7 1.5-1.5-.7-1.5-1.5-1.5ZM23 27c-1.1 0-2 .9-2 2s.9 2 2 2 2-.9 2-2-.9-2-2-2Z" opacity=".2"/><path fill="#888" fill-rule="evenodd" d="M47 33a17 17 0 1 1 34 0v22a17 17 0 0 1-17 17h-1.5C53.9 72 47 65 47 56.5V33Zm17-11c-6 0-11 5-11 11v23.5a9.5 9.5 0 0 0 9.5 9.5H64c6 0 11-5 11-11V33c0-6-5-11-11-11Z" clip-rule="evenodd"/><path fill="#FFD65C" d="m83.5 76.2-17.7 3.6a9.3 9.3 0 0 1-3.6 0l-17.8-3.6A6.6 6.6 0 0 1 39 70V48.6c0-3.1 2.7-5.6 6-5.6h38c3.3 0 6 2.5 6 5.6v21.3c0 3-2.3 5.7-5.5 6.3Z"/><path fill="#F9BE1A" d="M83 43H64v37c.6 0 1.2 0 1.8-.2l17.8-3.6A6.6 6.6 0 0 0 89 70V48.6c0-3.1-2.7-5.6-6-5.6Z"/><path fill="#C18010" d="M68.3 56.8a4.7 4.7 0 0 0-4.6-4.7 4.7 4.7 0 0 0-2.4 8.7l-1.8 7.1h8.3L66 60.8a4.7 4.7 0 0 0 2.3-4Z"/></svg>