<svg xmlns="http://www.w3.org/2000/svg" fill="none" viewBox="0 0 96 96"><path fill="#F9BE1A" d="M46 46c1-7 0-14-4-19s-12-5-19-4c-1 7 0 14 4 19s12 5 19 4"/><path fill="#FC3" d="M46 46c1-7 0-14-4-19-5-4-12-5-19-4z"/><path fill="#F9BE1A" d="M50 46c-1-7 0-14 4-19s12-5 19-4c1 7 0 14-4 19s-12 5-19 4"/><path fill="#FC3" d="M50 46c-1-7 0-14 4-19s12-5 19-4z"/><path fill="#F9BE1A" d="m61 24-7 3v15c8-4 5-16 7-18"/><path fill="#F9BE1A" d="M48 16c6 4 10 9 10 16 0 6-4 12-10 16-6-4-10-10-10-16s4-12 10-16"/><path fill="#FC3" d="M48 16c6 4 10 9 10 16s-4 12-10 16z"/><path fill="#876ECB" d="M18 40a2 2 0 0 1 3 0v39a2 2 0 0 1-3 0z"/><path fill="#6B4EBA" d="m40 64 5-4a4 4 0 0 1 6 0l5 4a4 4 0 0 1 0 6l-5 5a5 5 0 0 1-6 0l-5-5a4 4 0 0 1 0-6"/><path fill="#A591DC" fill-rule="evenodd" d="M48 76a5 5 0 0 1-3-1l-5-5a4 4 0 0 1 0-6l5-4a4 4 0 0 1 3-2z" clip-rule="evenodd"/><path fill="#876ECB" fill-rule="evenodd" d="m17 34 6 1a48 48 0 0 1 23 10 3 3 0 0 0 4 0 48 48 0 0 1 23-10l6-1a1 1 0 0 1 1 1v12l-2 10c-1 6-7 10-14 11a17 17 0 0 1-13-6l-1-1a3 3 0 0 0-4 0l-1 1a17 17 0 0 1-13 6c-7-1-13-5-14-11l-2-10V35a1 1 0 0 1 1-1m27 23a8 8 0 0 0-8-8h-6a1 1 0 0 0-1 1v4a7 7 0 0 0 7 6h5a3 3 0 0 0 3-3m8 0a8 8 0 0 1 8-8h6a1 1 0 0 1 1 1v4a7 7 0 0 1-7 6h-5a3 3 0 0 1-3-3" clip-rule="evenodd"/><path fill="#A591DC" fill-rule="evenodd" d="M16 35a1 1 0 0 1 1-1l6 1a48 48 0 0 1 23 10 3 3 0 0 0 2 1v14a3 3 0 0 0-2 1l-1 1a17 17 0 0 1-13 6c-7-1-13-5-14-11l-2-10zm20 14a8 8 0 0 1 8 8 3 3 0 0 1-3 3h-5a7 7 0 0 1-7-6v-4a1 1 0 0 1 1-1z" clip-rule="evenodd"/><path fill="#63C853" fill-rule="evenodd" d="M44 57a8 8 0 0 0-8-8h-6a1 1 0 0 0-1 1v4a7 7 0 0 0 3 4 7 7 0 0 1-3-3l-3-8a1 1 0 0 1 1-1h10a8 8 0 0 1 8 8v2a4 4 0 0 1-2 3 3 3 0 0 0 1-2Zm8 0a8 8 0 0 1 8-8h6a1 1 0 0 1 1 1v4a7 7 0 0 1-3 4 7 7 0 0 0 3-3l3-8a1 1 0 0 0-1-1H59a8 8 0 0 0-8 8v2l2 3a3 3 0 0 1-1-2" clip-rule="evenodd"/></svg>