<svg xmlns="http://www.w3.org/2000/svg" fill="none" viewBox="0 0 96 96"><path fill="#557FF3" d="M71 51c-11 0-20 9-20 20a3 3 0 0 1-2.2 3c-7.2 2-15.3 3.9-21.2 5.2a3.1 3.1 0 0 1-.9 0H22V75h2.4l.4-.7 7.3-8.3A27.6 27.6 0 0 1 21 44c0-13.5 9.9-24.7 23-27.4V16h7c15.6.5 28 12.9 28 28q0 2-.3 4c-.3 1.8-1.9 3-3.7 3z"/><path fill="#7295F6" d="M71 51a20 20 0 0 0-19.8 17.5 20 20 0 0 0-.2 1.8 2 2 0 0 1-1.4 2q-.5 0-1.1.3c-8.2 2.5-18.6 5-25.9 6.6a3 3 0 0 1-2.8-4.9l5.2-5.8c1.1-1.4 1-3.4-.4-4.6C19.3 59 16 52 16 44c0-15.5 13-28 29-28s29 12.5 29 28c0 2.4-.3 4.8-1 7z"/><path fill="#CCC" d="M92.5 59c.3 0 .6.1.8.4.5.4.5 1.2 0 1.7L91 63.5a1.1 1.1 0 0 1-1.7 0 1.2 1.2 0 0 1 0-1.7l2.4-2.4c.2-.3.5-.4.8-.4zm-1.2 10.8h3.5c.7 0 1.2.5 1.2 1.2s-.5 1.2-1.2 1.2h-3.5c-.6 0-1.1-.5-1.1-1.2s.5-1.2 1.1-1.2m-2 8.8c.3-.3.6-.4.9-.4.3 0 .6.1.8.4l2.3 2.4c.5.4.5 1.2 0 1.6a1.1 1.1 0 0 1-1.6 0l-2.3-2.4a1.2 1.2 0 0 1 0-1.6"/><path fill="#fff" fill-rule="evenodd" d="M51.4 37.3c.2.6 1 .9 1.7.8a24 24 0 0 1 2.4-.1l2.4.1c.7 0 1.5-.2 1.7-.8a4.5 4.5 0 1 0-8.2 0m-19 0c.3.7 1.1 1 1.9.9a16 16 0 0 1 2.2-.2 16 16 0 0 1 2.2.2c.8 0 1.6-.2 2-.9a4.5 4.5 0 1 0-8.3 0m25 16.4c-.8.9-2 .9-3 .3a14.8 14.8 0 0 0-16.8 0c-1 .6-2.2.6-3-.3l-1.3-1.4c-.7-.9-.7-2.1.2-2.8a20.8 20.8 0 0 1 25 0c.9.7 1 2 .2 2.8z" clip-rule="evenodd"/><circle cx="71" cy="71" r="16" fill="#EE1025"/><path fill="#fff" d="M61 70a2 2 0 0 1 2-2h16a2 2 0 0 1 2 2v2a2 2 0 0 1-2 2H63a2 2 0 0 1-2-2z"/><path fill="#CCC" d="M92.5 59c.3 0 .6.1.8.4.5.4.5 1.2 0 1.7L91 63.5a1.1 1.1 0 0 1-1.7 0 1.2 1.2 0 0 1 0-1.7l2.4-2.4c.2-.3.5-.4.8-.4zm-1.2 10.8h3.5c.7 0 1.2.5 1.2 1.2s-.5 1.2-1.2 1.2h-3.5c-.6 0-1.1-.5-1.1-1.2s.5-1.2 1.1-1.2m-2 8.8c.3-.3.6-.4.9-.4.3 0 .6.1.8.4l2.3 2.4c.5.4.5 1.2 0 1.6a1.1 1.1 0 0 1-1.6 0l-2.3-2.4a1.2 1.2 0 0 1 0-1.6"/></svg>